<?xml version="1.0" standalone="no"?>
<!DOCTYPE svg PUBLIC "-//W3C//DTD SVG 20010904//EN"
 "http://www.w3.org/TR/2001/REC-SVG-20010904/DTD/svg10.dtd">
<svg version="1.0" xmlns="http://www.w3.org/2000/svg"
 width="512.000000pt" height="512.000000pt" viewBox="0 0 512.000000 512.000000"
 preserveAspectRatio="xMidYMid meet">

<g transform="translate(0.000000,512.000000) scale(0.100000,-0.100000)"
fill="#C7F464" stroke="none">
<path d="M325 4466 c-68 -17 -129 -50 -182 -99 -69 -64 -86 -108 -61 -161 6
-14 230 -211 497 -438 643 -546 1417 -1209 1669 -1430 176 -154 211 -180 258
-194 49 -14 59 -14 107 0 58 17 56 15 337 261 236 207 931 802 1591 1363 267
227 491 424 497 438 25 53 8 97 -61 161 -55 51 -124 87 -195 102 -80 17 -4388
14 -4457 -3z"/>
<path d="M47 3839 c-49 -29 -47 21 -47 -1309 0 -1141 1 -1244 17 -1270 19 -33
52 -50 97 -50 27 0 102 51 447 303 617 451 1105 822 1150 873 27 31 32 75 12
110 -14 25 -1397 1215 -1547 1332 -31 24 -97 30 -129 11z"/>
<path d="M4944 3828 c-146 -114 -1533 -1308 -1547 -1332 -20 -35 -15 -79 12
-110 45 -51 533 -422 1150 -873 345 -252 420 -303 447 -303 45 0 78 17 97 50
16 26 17 129 17 1270 0 1336 2 1282 -49 1310 -34 18 -96 12 -127 -12z"/>
<path d="M1906 2258 c-10 -6 -112 -83 -225 -172 -285 -224 -611 -468 -1123
-840 -241 -175 -445 -327 -453 -339 -8 -12 -15 -39 -15 -59 0 -31 8 -47 40
-82 47 -51 143 -102 219 -116 74 -14 4348 -14 4422 0 76 14 172 65 219 116 32
35 40 51 40 82 0 20 -7 47 -15 59 -8 12 -95 79 -193 149 -560 404 -1057 774
-1384 1030 -113 89 -215 167 -227 173 -11 6 -35 11 -55 11 -37 0 -39 -1 -251
-186 -152 -132 -269 -177 -406 -155 -94 15 -173 59 -284 155 -214 187 -213
186 -253 186 -20 0 -46 -6 -56 -12z"/>
</g>
</svg>
